<svg width="289" height="52" viewBox="0 0 289 52" fill="none" xmlns="http://www.w3.org/2000/svg">
<rect x="0.500977" y="1.1333" width="287.089" height="50.2158" rx="3.5" fill="#114303" stroke="url(#paint0_linear_204_55)"/>
<path d="M114.998 32.2784H103.898V18.2784H114.998V21.0784H107.498V23.7784H113.398V26.5784H107.498V29.4784H114.998V32.2784ZM128.793 32.2784H124.993L120.193 23.8784V32.2784H116.593V18.2784H120.393L125.193 26.6784V18.2784H128.793V32.2784ZM138.003 32.2784H134.403V21.0784H130.203V18.2784H142.203V21.0784H138.003V32.2784ZM143.605 18.2784H152.005C153.405 18.2784 154.418 18.5984 155.045 19.2384C155.685 19.8651 156.005 20.8784 156.005 22.2784V24.0784C156.005 25.1851 155.818 26.0451 155.445 26.6584C155.085 27.2718 154.505 27.6784 153.705 27.8784L156.205 32.2784H152.305L150.005 28.0784H147.205V32.2784H143.605V18.2784ZM152.405 22.2784C152.405 21.4784 152.005 21.0784 151.205 21.0784H147.205V25.2784H151.205C152.005 25.2784 152.405 24.8784 152.405 24.0784V22.2784ZM160.499 32.2784H156.599L161.899 18.2784H165.899L171.199 32.2784H167.299L166.399 29.7784H161.399L160.499 32.2784ZM162.299 27.1784H165.499L163.899 22.4784L162.299 27.1784ZM172.199 18.2784H180.599C181.999 18.2784 183.012 18.5984 183.639 19.2384C184.279 19.8651 184.599 20.8784 184.599 22.2784V24.0784C184.599 25.1851 184.412 26.0451 184.039 26.6584C183.679 27.2718 183.099 27.6784 182.299 27.8784L184.799 32.2784H180.899L178.599 28.0784H175.799V32.2784H172.199V18.2784ZM180.999 22.2784C180.999 21.4784 180.599 21.0784 179.799 21.0784H175.799V25.2784H179.799C180.599 25.2784 180.999 24.8784 180.999 24.0784V22.2784Z" fill="#F5F5F5"/>
<defs>
<linearGradient id="paint0_linear_204_55" x1="144.045" y1="0.633301" x2="144.045" y2="51.8491" gradientUnits="userSpaceOnUse">
<stop stop-color="#FFFF00"/>
<stop offset="1" stop-color="#29FF00"/>
</linearGradient>
</defs>
</svg>
