<svg width="24" height="25" viewBox="0 0 24 25" fill="none" xmlns="http://www.w3.org/2000/svg">
<path fill-rule="evenodd" clip-rule="evenodd" d="M12.002 4.13793C9.79195 4.13793 8.00195 5.98966 8.00195 8.27586C8.00195 10.5621 9.79195 12.4138 12.002 12.4138C14.212 12.4138 16.002 10.5621 16.002 8.27586C16.002 5.98966 14.212 4.13793 12.002 4.13793ZM14.002 8.27586C14.002 7.13793 13.102 6.2069 12.002 6.2069C10.902 6.2069 10.002 7.13793 10.002 8.27586C10.002 9.41379 10.902 10.3448 12.002 10.3448C13.102 10.3448 14.002 9.41379 14.002 8.27586ZM18.002 18.6207C17.802 17.8862 14.702 16.5517 12.002 16.5517C9.31195 16.5517 6.23195 17.8759 6.00195 18.6207H18.002ZM4.00195 18.6207C4.00195 15.869 9.33195 14.4828 12.002 14.4828C14.672 14.4828 20.002 15.869 20.002 18.6207V20.6897H4.00195V18.6207Z" fill="white"/>
</svg>
