<svg width="62" height="15" viewBox="0 0 62 15" fill="none" xmlns="http://www.w3.org/2000/svg">
<path d="M0.78 11.1C4.43333 11.3 6.90667 11.4 8.2 11.4C8.50667 11.4 8.74667 11.3133 8.92 11.14C9.10667 10.9533 9.2 10.7067 9.2 10.4V8.6H4.6C3.2 8.6 2.18 8.28667 1.54 7.66C0.913333 7.02 0.6 6 0.6 4.6V4C0.6 2.6 0.913333 1.58667 1.54 0.96C2.18 0.319999 3.2 -9.53674e-07 4.6 -9.53674e-07H11.62V2.8H5.4C4.6 2.8 4.2 3.2 4.2 4V4.4C4.2 5.2 4.6 5.6 5.4 5.6H9C10.3067 5.6 11.2667 5.90667 11.88 6.52C12.4933 7.13333 12.8 8.09333 12.8 9.4V10.4C12.8 11.7067 12.4933 12.6667 11.88 13.28C11.2667 13.8933 10.3067 14.2 9 14.2C8.32 14.2 7.6 14.1867 6.84 14.16L5 14.08C3.64 14.0133 2.23333 13.92 0.78 13.8V11.1ZM18.4984 5.7C17.9651 5.7 17.6984 5.96667 17.6984 6.5V7.6H21.0984V6.5C21.0984 5.96667 20.8318 5.7 20.2984 5.7H18.4984ZM24.1984 13.8C21.6251 14.0667 19.2918 14.2 17.1984 14.2C16.2918 14.2 15.5651 13.9267 15.0184 13.38C14.4718 12.8333 14.1984 12.1067 14.1984 11.2V6.4C14.1984 5.4 14.4784 4.62 15.0384 4.06C15.6118 3.48667 16.3984 3.2 17.3984 3.2H21.3984C22.3984 3.2 23.1784 3.48667 23.7384 4.06C24.3118 4.62 24.5984 5.4 24.5984 6.4V10.1H17.6984V10.9C17.6984 11.1 17.7651 11.2667 17.8984 11.4C18.0318 11.5333 18.1984 11.6 18.3984 11.6C19.7184 11.6 21.6518 11.5 24.1984 11.3V13.8ZM32.2906 6.1C31.584 6.1 30.784 6.23333 29.8906 6.5V14H26.3906V3.4H29.4906L29.6906 4.4C30.3173 3.98667 30.9573 3.68667 31.6106 3.5C32.2773 3.3 32.8373 3.2 33.2906 3.2H34.1906C35.0973 3.2 35.824 3.47333 36.3706 4.02C36.9173 4.56667 37.1906 5.29333 37.1906 6.2V14H33.6906V6.8C33.6906 6.6 33.624 6.43333 33.4906 6.3C33.3573 6.16667 33.1906 6.1 32.9906 6.1H32.2906ZM42.4883 3.6C43.7816 3.33333 44.9149 3.2 45.8883 3.2H46.7883C47.6949 3.2 48.4216 3.47333 48.9683 4.02C49.5149 4.56667 49.7883 5.29333 49.7883 6.2V14H46.2883V6.6C46.2883 6.4 46.2216 6.23333 46.0883 6.1C45.9549 5.96667 45.7883 5.9 45.5883 5.9H44.8883C44.3816 5.9 43.9149 5.92667 43.4883 5.98C43.0749 6.03333 42.7416 6.07333 42.4883 6.1V14H38.9883V-9.53674e-07H42.4883V3.6ZM55.7859 11.4C56.4926 11.4 57.2926 11.2667 58.1859 11V9.8H55.2859C55.0859 9.8 54.9193 9.86667 54.7859 10C54.6526 10.1333 54.5859 10.3 54.5859 10.5V10.7C54.5859 10.9 54.6526 11.0667 54.7859 11.2C54.9193 11.3333 55.0859 11.4 55.2859 11.4H55.7859ZM52.0859 3.6C54.5259 3.33333 56.7259 3.2 58.6859 3.2C59.5926 3.2 60.3193 3.47333 60.8659 4.02C61.4126 4.56667 61.6859 5.29333 61.6859 6.2V14H58.5859L58.3859 13C57.7593 13.4133 57.1126 13.72 56.4459 13.92C55.7926 14.1067 55.2393 14.2 54.7859 14.2H54.0859C53.1793 14.2 52.4526 13.9267 51.9059 13.38C51.3593 12.8333 51.0859 12.1067 51.0859 11.2V10.3C51.0859 9.39333 51.3593 8.66667 51.9059 8.12C52.4526 7.57333 53.1793 7.3 54.0859 7.3H58.1859V6.5C58.1859 6.3 58.1193 6.13333 57.9859 6C57.8526 5.86667 57.6859 5.8 57.4859 5.8C56.6193 5.8 55.6593 5.84 54.6059 5.92C53.5659 6 52.7259 6.06 52.0859 6.1V3.6Z" fill="white"/>
</svg>
