<svg width="20" height="18" viewBox="0 0 20 18" fill="none" xmlns="http://www.w3.org/2000/svg">
<path d="M19.8695 8.38732C19.0632 6.6886 18.1036 5.3032 16.9909 4.23112L15.8238 5.39816C16.7755 6.30762 17.6044 7.49736 18.3212 8.9791C16.4129 12.9289 13.704 14.8051 10.0019 14.8051C8.89071 14.8051 7.86719 14.634 6.93135 14.2918L5.66683 15.5563C6.9666 16.1565 8.41164 16.4566 10.0019 16.4566C14.4104 16.4566 17.6996 14.1606 19.8695 9.56858C19.9567 9.3839 20.002 9.1822 20.002 8.97795C20.002 8.77371 19.9567 8.572 19.8695 8.38732ZM18.4114 1.03277L17.4336 0.0538171C17.4165 0.0367562 17.3963 0.0232218 17.374 0.0139874C17.3517 0.0047531 17.3279 0 17.3037 0C17.2796 0 17.2557 0.0047531 17.2335 0.0139874C17.2112 0.0232218 17.191 0.0367562 17.1739 0.0538171L14.6653 2.5613C13.2822 1.85484 11.7277 1.50161 10.0019 1.50161C5.59343 1.50161 2.30425 3.79761 0.134404 8.38962C0.0471866 8.5743 0.00195313 8.776 0.00195312 8.98024C0.00195312 9.18449 0.0471866 9.38619 0.134404 9.57088C1.00127 11.3967 2.04491 12.8601 3.26532 13.9613L0.838114 16.3878C0.803728 16.4222 0.784411 16.4688 0.784411 16.5175C0.784411 16.5661 0.803728 16.6128 0.838114 16.6472L1.8173 17.6264C1.85171 17.6608 1.89836 17.6801 1.94701 17.6801C1.99565 17.6801 2.04231 17.6608 2.07672 17.6264L18.4114 1.29242C18.4284 1.27538 18.442 1.25514 18.4512 1.23286C18.4604 1.21059 18.4652 1.18671 18.4652 1.1626C18.4652 1.13848 18.4604 1.1146 18.4512 1.09233C18.442 1.07005 18.4284 1.04981 18.4114 1.03277ZM1.68266 8.9791C3.59332 5.02933 6.30219 3.15308 10.0019 3.15308C11.2529 3.15308 12.3904 3.36777 13.4223 3.80426L11.8098 5.41674C11.0462 5.00929 10.1718 4.85808 9.31567 4.9854C8.45954 5.11272 7.667 5.51184 7.05496 6.12387C6.44293 6.73591 6.04381 7.52845 5.91649 8.38458C5.78917 9.24071 5.94039 10.1151 6.34783 10.8787L4.43442 12.7922C3.37541 11.8575 2.46252 10.5911 1.68266 8.9791ZM7.34124 8.9791C7.34164 8.57464 7.43744 8.17597 7.62087 7.81549C7.80429 7.45501 8.07016 7.14288 8.39687 6.90446C8.72359 6.66604 9.10194 6.50804 9.50119 6.44332C9.90044 6.37859 10.3093 6.40895 10.6946 6.53194L7.46303 9.76355C7.38204 9.50995 7.34095 9.24531 7.34124 8.9791Z" fill="white"/>
<path d="M9.91019 11.548C9.83083 11.548 9.75261 11.5444 9.67508 11.5373L8.46354 12.7488C9.19223 13.0279 9.98616 13.0899 10.7493 12.9273C11.5125 12.7648 12.2123 12.3847 12.764 11.8329C13.3158 11.2812 13.6959 10.5814 13.8584 9.81823C14.021 9.05505 13.959 8.26113 13.6799 7.53244L12.4684 8.74397C12.4755 8.8215 12.4791 8.89972 12.4791 8.97908C12.4793 9.31649 12.413 9.65063 12.284 9.96239C12.1549 10.2742 11.9657 10.5574 11.7271 10.796C11.4885 11.0346 11.2053 11.2238 10.8935 11.3529C10.5817 11.4819 10.2476 11.5482 9.91019 11.548Z" fill="white"/>
</svg>
