<svg width="78" height="16" viewBox="0 0 78 16" fill="none" xmlns="http://www.w3.org/2000/svg">
<path d="M9.2 0.999999H12.8V11.2C12.8 12.6 12.48 13.62 11.84 14.26C11.2133 14.8867 10.2 15.2 8.8 15.2H4.2C2.8 15.2 1.78 14.8867 1.14 14.26C0.513333 13.62 0.2 12.6 0.2 11.2V0.999999H3.8V11.2C3.8 12 4.2 12.4 5 12.4H8C8.8 12.4 9.2 12 9.2 11.2V0.999999ZM14.6 12.2C17.3067 12.4 19.44 12.5 21 12.5C21.2 12.5 21.3667 12.4333 21.5 12.3C21.6333 12.1667 21.7 12 21.7 11.8V11.1H17.4C16.4933 11.1 15.7667 10.8267 15.22 10.28C14.6733 9.73333 14.4 9.00667 14.4 8.1V7.4C14.4 6.49333 14.6733 5.76667 15.22 5.22C15.7667 4.67333 16.4933 4.4 17.4 4.4H24.2V7H18.6C18.4 7 18.2333 7.06667 18.1 7.2C17.9667 7.33333 17.9 7.5 17.9 7.7C17.9 7.9 17.9667 8.06667 18.1 8.2C18.2333 8.33333 18.4 8.4 18.6 8.4H22.2C23.1067 8.4 23.8333 8.67333 24.38 9.22C24.9267 9.76667 25.2 10.4933 25.2 11.4V12.2C25.2 13.1067 24.9267 13.8333 24.38 14.38C23.8333 14.9267 23.1067 15.2 22.2 15.2C19.84 15.2 17.3067 15.0667 14.6 14.8V12.2ZM31.5016 12.3C32.2082 12.3 33.0082 12.1667 33.9016 11.9V4.4H37.4016V15H34.3016L34.1016 14C33.4749 14.4133 32.8282 14.72 32.1616 14.92C31.5082 15.1067 30.9549 15.2 30.5016 15.2H29.6016C28.6949 15.2 27.9682 14.9267 27.4216 14.38C26.8749 13.8333 26.6016 13.1067 26.6016 12.2V4.4H30.1016V11.6C30.1016 11.8 30.1682 11.9667 30.3016 12.1C30.4349 12.2333 30.6016 12.3 30.8016 12.3H31.5016ZM43.5945 12.4C44.3012 12.4 45.1012 12.2667 45.9945 12V10.8H43.0945C42.8945 10.8 42.7279 10.8667 42.5945 11C42.4612 11.1333 42.3945 11.3 42.3945 11.5V11.7C42.3945 11.9 42.4612 12.0667 42.5945 12.2C42.7279 12.3333 42.8945 12.4 43.0945 12.4H43.5945ZM39.8945 4.6C42.3345 4.33333 44.5345 4.2 46.4945 4.2C47.4012 4.2 48.1279 4.47333 48.6745 5.02C49.2212 5.56667 49.4945 6.29333 49.4945 7.2V15H46.3945L46.1945 14C45.5679 14.4133 44.9212 14.72 44.2545 14.92C43.6012 15.1067 43.0479 15.2 42.5945 15.2H41.8945C40.9879 15.2 40.2612 14.9267 39.7145 14.38C39.1679 13.8333 38.8945 13.1067 38.8945 12.2V11.3C38.8945 10.3933 39.1679 9.66667 39.7145 9.12C40.2612 8.57333 40.9879 8.3 41.8945 8.3H45.9945V7.5C45.9945 7.3 45.9279 7.13333 45.7945 7C45.6612 6.86667 45.4945 6.8 45.2945 6.8C44.4279 6.8 43.4679 6.84 42.4145 6.92C41.3745 7 40.5345 7.06 39.8945 7.1V4.6ZM42.7745 3.58L43.9745 0.179999H47.5745L45.3745 3.58H42.7745ZM57.3891 7.3C56.5491 7.3 55.6824 7.5 54.7891 7.9V15H51.2891V4.4H54.3891L54.5891 5.7C55.7357 4.7 56.9357 4.2 58.1891 4.2H59.0891V7.3H57.3891ZM64.8883 4.8V15H61.3883V7.5H59.8883V4.8H64.8883ZM61.3883 0.799999H64.8883V3.6H61.3883V0.799999ZM77.6945 12C77.6945 13 77.4079 13.7867 76.8345 14.36C76.2745 14.92 75.4945 15.2 74.4945 15.2H69.8945C68.8945 15.2 68.1079 14.92 67.5345 14.36C66.9745 13.7867 66.6945 13 66.6945 12V7.4C66.6945 6.4 66.9745 5.62 67.5345 5.06C68.1079 4.48667 68.8945 4.2 69.8945 4.2H74.4945C75.4945 4.2 76.2745 4.48667 76.8345 5.06C77.4079 5.62 77.6945 6.4 77.6945 7.4V12ZM74.1945 7.7C74.1945 7.16667 73.9279 6.9 73.3945 6.9H70.9945C70.4612 6.9 70.1945 7.16667 70.1945 7.7V11.7C70.1945 12.2333 70.4612 12.5 70.9945 12.5H73.3945C73.9279 12.5 74.1945 12.2333 74.1945 11.7V7.7Z" fill="white"/>
</svg>
